<?xml version="1.0" encoding="utf-8"?>
<!-- Generator: Adobe Illustrator 25.4.1, SVG Export Plug-In . SVG Version: 6.00 Build 0)  -->
<svg version="1.1" id="Layer_1" xmlns="http://www.w3.org/2000/svg" xmlns:xlink="http://www.w3.org/1999/xlink" x="0px" y="0px"
	 viewBox="0 0 917.7 265.8" style="enable-background:new 0 0 917.7 265.8;" xml:space="preserve">
<style type="text/css">
	.st0{fill:#ad0d12;}
	.st1{fill:#FFFFFF;}
	.st2{font-family:'Helvetica-Bold';}
	.st3{font-size:80.1827px;}
	.st4{font-size:84px;}
</style>
<g>
	<g>
		<path class="st0" d="M165.4,248.1v8.9c0,4.9,4,8.9,8.9,8.9h53.2c4.9,0,8.9-4,8.9-8.9v-8.9L165.4,248.1L165.4,248.1z"/>
	</g>
</g>
<g>
	<g>
		<path class="st0" d="M35.4,248.1v8.9c0,4.9,4,8.9,8.9,8.9h53.2c4.9,0,8.9-4,8.9-8.9v-8.9L35.4,248.1L35.4,248.1z"/>
	</g>
</g>
<g>
	<g>
		<path class="st0" d="M234.5,106.9l-12.8-51.4c-3-11.9-13.6-20.1-25.8-20.1h-12.7v-8.9c0-14.7-11.9-26.6-26.6-26.6h-41.3
			c-14.7,0-26.6,11.9-26.6,26.6v8.9H75.9c-12.2,0-22.8,8.3-25.8,20.1l-12.8,51.4C16.2,110.3,0,128.6,0,150.6v35.4
			c0,24.4,19.9,44.3,44.3,44.3c3.1,0,180.4,0,183.1,0c24.4,0,44.3-19.9,44.3-44.3v-35.4C271.7,128.6,255.6,110.3,234.5,106.9z
			 M17.7,177.2v-17.7h8.9c11.6,0,21.4,7.4,25.1,17.7H17.7z M90.1,212.6c3.7-10.3,13.5-17.7,25.1-17.7h41.3
			c11.6,0,21.4,7.4,25.1,17.7H90.1z M174.3,159.5H97.5c-4.9,0-8.9-4-8.9-8.9c0-4.9,4-8.9,8.9-8.9h76.8c4.9,0,8.9,4,8.9,8.9
			C183.1,155.5,179.1,159.5,174.3,159.5z M55.7,106.3l11.6-46.4c1-4,4.5-6.7,8.6-6.7c3.5,0,118.9,0,120,0c4.1,0,7.6,2.8,8.6,6.7
			l11.6,46.4H55.7z M254,177.2h-33.9c3.7-10.3,13.5-17.7,25.1-17.7h8.9L254,177.2L254,177.2z"/>
	</g>
</g>
<text transform="matrix(1 0 0 1 317.0933 106.3233)"><tspan x="0" y="0" class="st1 st2 st3">USA AIRPORTS</tspan><tspan x="0" y="100.8" class="st1 st2 st4">LIMO SERVICE</tspan></text>
</svg>
